<svg xmlns="http://www.w3.org/2000/svg" viewBox="0 0 1200 900" role="img" aria-label="Trading journal desk">
  <rect width="1200" height="900" fill="#08120e"/>
  <rect x="92" y="98" width="1016" height="704" rx="42" fill="#0b1f17" stroke="#18563d" stroke-width="4"/>
  <rect x="150" y="156" width="520" height="584" rx="22" fill="#f3efe6"/>
  <path d="M202 250h398M202 318h398M202 386h398M202 454h398M202 522h398M202 590h276" stroke="#94a38d" stroke-width="5" stroke-linecap="round"/>
  <text x="202" y="214" font-family="Georgia,serif" font-size="42" font-weight="700" fill="#0f172a">Daily Journal</text>
  <rect x="724" y="166" width="300" height="210" rx="20" fill="#06110d" stroke="#123d2d"/>
  <path d="M754 315C804 265 826 292 858 238C895 178 930 232 996 190" fill="none" stroke="#10b981" stroke-width="7" stroke-linecap="round"/>
  <rect x="748" y="430" width="254" height="60" rx="12" fill="#062c20"/>
  <rect x="748" y="520" width="210" height="60" rx="12" fill="#12352a"/>
  <rect x="748" y="610" width="280" height="60" rx="12" fill="#062c20"/>
  <text x="778" y="468" font-family="Inter,Arial,sans-serif" font-size="24" font-weight="800" fill="#d1fae5">Risk capped</text>
  <text x="778" y="558" font-family="Inter,Arial,sans-serif" font-size="24" font-weight="800" fill="#d1fae5">No revenge</text>
  <text x="778" y="648" font-family="Inter,Arial,sans-serif" font-size="24" font-weight="800" fill="#d1fae5">Screenshot trade</text>
</svg>
