<svg xmlns="http://www.w3.org/2000/svg" viewBox="0 0 1200 760" role="img" aria-label="GBPJPY volatility chart">
  <rect width="1200" height="760" fill="#080f0c"/>
  <g stroke="#173628"><path d="M0 95h1200M0 190h1200M0 285h1200M0 380h1200M0 475h1200M0 570h1200M0 665h1200M160 0v760M320 0v760M480 0v760M640 0v760M800 0v760M960 0v760"/></g>
  <path d="M80 620L150 545L220 590L290 410L360 490L430 260L500 330L570 182L640 300L710 130L780 255L850 112L920 206L990 96L1120 154" fill="none" stroke="#22c55e" stroke-width="8" stroke-linecap="round"/>
  <rect x="86" y="80" width="334" height="88" rx="18" fill="#09251b" stroke="#10b981"/>
  <text x="116" y="132" font-family="Inter,Arial" font-size="32" font-weight="800" fill="#f8fafc">GBPJPY watchlist</text>
  <text x="826" y="632" font-family="Inter,Arial" font-size="26" fill="#bbf7d0">Wait for candle close</text>
</svg>
